<svg xmlns="http://www.w3.org/2000/svg" width="1024" height="1024" viewBox="0 0 1024 1024" fill="#D5D5D5"><path d="M512.002 8.057c-278.904 0-505.002 225.625-505.002 503.939 0 278.33 226.098 503.948 505.002 503.948 278.899 0 504.998-225.618 504.998-503.948 0-278.314-226.099-503.939-504.998-503.939zm5.067 969.051c-171.562 0-293.432-104.875-295.168-106.611 27.778-16.159 141.757-38.287 168.439-55.04 29.54-18.554 20.047-120.051 20.047-120.051l-20.047-17.503s-4.035-46.479-13.786-62.526c-16.686-27.46-40.102-100.032-40.102-100.032s-20.047-14.568-20.047-40.03c0-25.455 20.047-40.007 20.047-40.007s-15.663-70.83-15.663-120.051c0-111.904 85.294-160.058 202.167-160.058 116.882 0 181.912 56.654 181.912 160.058 0 49.221-7.514 120.051-7.514 120.051s20.047 14.552 20.047 40.007c0 25.462-20.047 40.03-20.047 40.03s-20.604 62.713-40.1 100.032c-8.7 16.64-13.788 62.526-13.788 62.526l-20.049 17.503s-9.493 101.497 20.049 120.051c26.334 16.535 137.734 38.318 167.316 54.417 0 1.959-122.144 107.234-293.713 107.234z"/></svg>